Coordinates
version=1
nRows=13
nColumns=34
inDegrees=yes

Units are S.I. units (second, meters, Newtons, ...)
If the header above contains a line with 'inDegrees', this indicates whether rotational values are in degrees (yes) or radians (no).

endheader
time	pelvis_tilt	pelvis_list	pelvis_rotation	pelvis_tx	pelvis_ty	pelvis_tz	hip_flexion_r	hip_adduction_r	hip_rotation_r	knee_angle_r	ankle_angle_r	subtalar_angle_r	mtp_angle_r	hip_flexion_l	hip_adduction_l	hip_rotation_l	knee_angle_l	ankle_angle_l	subtalar_angle_l	mtp_angle_l	lumbar_extension	lumbar_bending	lumbar_rotation	arm_flex_r	arm_add_r	arm_rot_r	elbow_flex_r	pro_sup_r	arm_flex_l	arm_add_l	arm_rot_l	elbow_flex_l	pro_sup_l
      0.00000000	    -10.57804869	     -1.22846994	     -0.62953548	      1.70509278	      1.00267079	     -0.83638318	      7.04471311	     -0.66979066	      0.63647186	      8.23345228	      3.84519486	    -12.99482249	      0.00000000	      4.18178269	     -2.60607721	     -1.04555593	      2.20726178	      3.21765450	     -9.75434673	      0.00000000	     -0.48696304	      0.52872704	      1.85040965	    -26.20970219	    -33.14958168	     25.47206977	     86.02167922	     82.15782874	    -20.53512594	    -38.35087353	     35.31988860	     82.90501738	     71.54983813
      0.00833330	    -12.89581101	     -0.90523025	     -0.20883962	      1.70689660	      0.99876471	     -0.83644673	      8.76649269	     -1.00948926	     -0.84370092	      7.44304774	      6.60951621	     -7.42996206	      0.00000000	      6.10489399	     -1.97168178	     -2.04650489	      1.11069372	      3.74339410	     -5.82830476	      0.00000000	      2.89584276	     -0.34011562	      1.70879507	    -26.74019409	    -34.80565334	     28.97391331	     87.05862533	     84.09527587	    -21.86991230	    -39.04246839	     36.67880585	     84.79503219	     72.70178420
      0.01666670	    -13.36817398	     -0.38640989	     -0.35295282	      1.70633293	      0.99813685	     -0.83563904	      8.97999970	     -1.35030032	     -1.65000667	      6.86971346	      7.34817215	     -6.52487984	      0.00000000	      6.29777850	     -1.38213746	     -3.81478172	      0.74645198	      4.40357336	     -4.03621121	      0.00000000	      3.27286877	     -1.45130168	      0.73497816	    -25.26529104	    -35.12201983	     30.59733021	     86.69751911	     92.20288333	    -24.49317193	    -38.83659241	     33.70986659	     85.84869199	     80.32643296
      0.02500000	    -13.64713692	     -0.12155642	     -0.11892047	      1.70732469	      0.99914343	     -0.83555948	      8.86101972	     -1.61192811	     -2.08290966	      6.19763110	      7.14884553	     -6.06566031	      0.00000000	      6.15410179	     -0.97939057	     -3.84759097	      0.00000000	      3.93291134	     -3.65713622	      0.00000000	      3.65081682	     -2.00304260	      0.50558844	    -25.50892305	    -34.71719166	     30.37651059	     86.30140721	     92.25668147	    -24.85455138	    -39.22248306	     33.71068847	     85.77515555	     80.59884348
      0.03333330	    -13.81894138	     -0.07894706	     -0.08188907	      1.70707012	      0.99829482	     -0.83554039	      8.87775469	     -1.61330549	     -2.23362153	      5.93464784	      7.29346584	     -6.10006106	      0.00000000	      6.27583880	     -0.86393897	     -4.00514289	      0.00000000	      4.04766411	     -3.70879612	      0.00000000	      3.58453777	     -2.04127438	      0.48380081	    -25.49164595	    -34.67651113	     30.32476720	     86.28051681	     92.26980933	    -24.83468744	    -39.23478614	     33.68750125	     85.80167048	     80.64167412
      0.04166670	    -13.87037955	     -0.06599391	     -0.07172295	      1.70913827	      0.99873115	     -0.83574148	      8.85970853	     -1.58839346	     -2.24031073	      5.94090177	      7.29683088	     -6.09737423	      0.00000000	      6.26008387	     -0.83187793	     -4.01064703	      0.00000000	      4.05242720	     -3.70736392	      0.00000000	      3.58569168	     -2.03849669	      0.48386663	    -25.48744685	    -34.67301815	     30.32048273	     86.27943862	     92.27091455	    -24.83132796	    -39.23604693	     33.68449737	     85.80455668	     80.64455501
      0.05000000	    -14.62942391	      0.08942643	      0.19603280	      1.70918299	      0.99776091	     -0.83610457	      9.51671341	     -1.88595780	     -3.68095640	      5.82669172	      8.31594526	     -4.23179938	      0.00000000	      7.02739120	     -0.62897341	     -4.79493844	      0.00000000	      4.88347583	     -1.82841019	      0.00000000	      4.65630024	     -2.22243531	      0.37296861	    -25.93972900	    -33.95325443	     29.33756828	     85.27864972	     93.00505573	    -25.12843737	    -39.30068174	     33.43614363	     86.28015985	     82.14857668
      0.05833330	    -14.66655134	      0.14560158	      0.16676808	      1.70985170	      0.99849379	     -0.83599949	      9.50676977	     -1.94305676	     -3.68282822	      5.78488351	      8.28608943	     -4.21086550	      0.00000000	      7.01085497	     -0.58636918	     -4.80858662	      0.00000000	      4.86646278	     -1.81736699	      0.00000000	      4.62516302	     -2.18787677	      0.30879496	    -26.00936483	    -33.95034007	     29.37057529	     85.25773015	     93.02597110	    -25.06958495	    -39.27419466	     33.41871926	     86.28853469	     82.18046026
      0.06666670	    -14.68961133	      0.15179403	      0.17018455	      1.71036247	      0.99860521	     -0.83602114	      9.50608078	     -1.95494426	     -3.68484841	      5.78071941	      8.28334849	     -4.20952040	      0.00000000	      6.99146339	     -0.59530057	     -4.81048221	      0.00000000	      4.86370583	     -1.81546668	      0.00000000	      4.62241345	     -2.18709256	      0.30624971	    -26.01424104	    -33.95069158	     29.37318978	     85.25498288	     93.02763451	    -25.06510701	    -39.26750974	     33.41857587	     86.29019671	     82.18300907
      0.07500000	    -14.66184873	      0.20558130	      0.21627612	      1.71052003	      0.99752600	     -0.83593275	      9.33859807	     -2.03324205	     -3.87722373	      5.56851917	      8.13561739	     -4.13302642	      0.00000000	      6.92075268	     -0.53916110	     -4.89317503	      0.00000000	      4.76129736	     -1.68355211	      0.00000000	      4.65611931	     -2.16855087	      0.36930941	    -26.26061129	    -33.95185368	     29.50330740	     85.13049145	     93.10580208	    -25.05074309	    -38.91268784	     33.47342380	     86.36559160	     82.30590080
      0.08333330	    -14.65567422	      0.20823772	      0.12708816	      1.71132222	      0.99864504	     -0.83590374	      9.31346118	     -2.02366063	     -3.93639826	      5.52890468	      8.09713339	     -4.11223563	      0.00000000	      6.88484103	     -0.57450700	     -4.89292682	      0.00000000	      4.75374717	     -1.64249968	      0.00000000	      4.66713748	     -2.15352640	      0.37661249	    -26.29630537	    -33.94834500	     29.51604289	     85.10668984	     93.12215914	    -25.06883635	    -38.90757988	     33.47344473	     86.35493645	     82.33384180
      0.09166670	    -14.64027631	      0.20606213	      0.12406699	      1.71026837	      0.99907743	     -0.83620283	      9.31226394	     -2.03653046	     -3.94211740	      5.51670615	      8.09234867	     -4.10813343	      0.00000000	      6.89522182	     -0.58926613	     -4.89506440	      0.00000000	      4.75608944	     -1.63832580	      0.00000000	      4.66793367	     -2.14848040	      0.38606913	    -26.29936283	    -33.94803151	     29.51761849	     85.10350506	     93.12397852	    -25.07686492	    -38.90321451	     33.47565297	     86.35389848	     82.33723459
      0.10000000	    -14.67143743	      0.20226478	      0.12829275	      1.71297227	      0.99870508	     -0.83629947	      9.30648094	     -2.04775275	     -3.94466405	      5.51476188	      8.08459151	     -4.10174653	      0.00000000	      6.87102635	     -0.60348325	     -4.89756726	      0.00000000	      4.75365383	     -1.63349878	      0.00000000	      4.66174902	     -2.14246445	      0.39476309	    -26.29888394	    -33.94726148	     29.51808367	     85.10115420	     93.12537409	    -25.08202963	    -38.89853634	     33.47752693	     86.35293351	     82.34016123
